<svg width="396.8208740234375px" height="120.8px" xmlns="http://www.w3.org/2000/svg" viewBox="51.589562988281244 14.600000000000001 396.8208740234375 120.8" style="background: rgba(0, 0, 0, 0);" preserveAspectRatio="xMidYMid"><defs><linearGradient id="editing-outline-gradient" x1="-0.41354545764260087" x2="1.4135454576426008" y1="0.09326335692419985" y2="0.9067366430758002"><stop offset="0" stop-color="#ee4208"></stop><stop offset="1" stop-color="#4139ff"></stop></linearGradient><filter id="editing-outline" x="-100%" y="-100%" width="300%" height="300%"><feMorphology in="SourceGraphic" operator="dilate" radius="1" result="outline"></feMorphology><feComposite operator="out" in="outline" in2="SourceAlpha"></feComposite></filter></defs><g filter="url(#editing-outline)"><g transform="translate(111.7776004076004, 98.68000221252441)"><path d="M26.05-29.57L26.05-29.57L26.05-29.57Q27.01-31.49 27.01-33.28L27.01-33.28L27.01-33.28Q27.01-35.07 26.82-36.06L26.82-36.06L26.82-36.06Q26.62-37.06 26.18-37.82L26.18-37.82L26.18-37.82Q25.22-39.49 23.30-39.49L23.30-39.49L23.30-39.49Q20.93-39.49 19.01-37.76L19.01-37.76L19.01-37.76Q16.96-35.97 16.96-33.15L16.96-33.15L16.96-33.15Q16.96-31.36 18.21-29.98L18.21-29.98L18.21-29.98Q19.46-28.61 21.38-27.33L21.38-27.33L21.38-27.33Q23.30-26.05 25.47-24.77L25.47-24.77L25.47-24.77Q27.65-23.49 29.57-21.95L29.57-21.95L29.57-21.95Q33.98-18.43 33.98-13.70L33.98-13.70L33.98-13.70Q33.98-10.50 32.29-7.78L32.29-7.78L32.29-7.78Q30.59-5.06 27.78-3.07L27.78-3.07L27.78-3.07Q21.63 1.28 13.50 1.28L13.50 1.28L13.50 1.28Q6.91 1.28 3.52-0.86L3.52-0.86L3.52-0.86Q0.13-3.01 0.13-6.27L0.13-6.27L0.13-6.27Q0.13-12.10 4.67-13.57L4.67-13.57L4.67-13.57Q5.95-14.02 7.90-14.02L7.90-14.02L7.90-14.02Q9.86-14.02 12.10-13.18L12.10-13.18L12.10-13.18Q11.07-10.56 11.07-8.19L11.07-8.19L11.07-8.19Q11.07-3.07 14.72-3.07L14.72-3.07L14.72-3.07Q17.09-3.07 19.04-4.80L19.04-4.80L19.04-4.80Q20.99-6.53 20.99-8.48L20.99-8.48L20.99-8.48Q20.99-10.43 19.74-11.84L19.74-11.84L19.74-11.84Q18.50-13.25 16.64-14.37L16.64-14.37L16.64-14.37Q14.78-15.49 12.64-16.58L12.64-16.58L12.64-16.58Q10.50-17.66 8.64-19.20L8.64-19.20L8.64-19.20Q4.29-22.72 4.29-28.35L4.29-28.35L4.29-28.35Q4.29-32 6.08-34.85L6.08-34.85L6.08-34.85Q7.87-37.70 10.75-39.62L10.75-39.62L10.75-39.62Q16.51-43.52 23.58-43.52L23.58-43.52L23.58-43.52Q30.66-43.52 34.08-41.41L34.08-41.41L34.08-41.41Q37.50-39.30 37.50-35.71L37.50-35.71L37.50-35.71Q37.50-32.58 35.07-30.59L35.07-30.59L35.07-30.59Q32.96-28.93 30.40-28.93L30.40-28.93L30.40-28.93Q27.84-28.93 26.05-29.57ZM59.39-2.69L59.39-2.69L59.39-2.69Q56.32 1.28 48.70 1.28L48.70 1.28L48.70 1.28Q44.74 1.28 41.86-1.12L41.86-1.12L41.86-1.12Q38.98-3.52 38.98-6.98L38.98-6.98L38.98-6.98Q38.98-8.90 39.17-9.86L39.17-9.86L43.46-32.64L56.45-33.92L51.78-9.22L51.78-9.22Q51.52-7.81 51.52-6.98L51.52-6.98L51.52-6.98Q51.52-3.26 53.76-3.26L53.76-3.26L53.76-3.26Q56.26-3.26 58.05-6.66L58.05-6.66L58.05-6.66Q58.62-7.74 58.88-9.15L58.88-9.15L63.42-32.64L76.03-33.92L71.30-8.96L71.30-8.96Q71.10-8 71.10-6.98L71.10-6.98L71.10-6.98Q71.10-5.95 71.68-4.83L71.68-4.83L71.68-4.83Q72.26-3.71 74.11-3.46L74.11-3.46L74.11-3.46Q73.73-1.92 72.38-0.90L72.38-0.90L72.38-0.90Q69.57 1.28 66.53 1.28L66.53 1.28L66.53 1.28Q63.49 1.28 61.70 0.19L61.70 0.19L61.70 0.19Q59.90-0.90 59.39-2.69ZM94.78-3.52L94.78-3.52L94.78-3.52Q92.80 1.28 86.46 1.28L86.46 1.28L86.46 1.28Q83.26 1.28 81.22-0.96L81.22-0.96L81.22-0.96Q79.55-2.82 79.55-4.93L79.55-4.93L79.55-4.93Q79.55-9.73 81.79-20.22L81.79-20.22L86.46-44.80L99.46-46.08L93.25-13.70L93.25-13.70Q92.16-8.96 92.16-7.30L92.16-7.30L92.16-7.30Q92.16-3.65 94.78-3.52ZM101.25-6.40L101.25-6.40L101.25-6.40Q101.25-8.13 102.14-12.48L102.14-12.48L105.54-29.76L101.76-29.76L102.02-31.68L102.02-31.68Q109.70-33.98 117.12-39.62L117.12-39.62L120.19-39.62L118.66-32.64L123.65-32.64L123.07-29.76L118.14-29.76L114.88-12.48L114.88-12.48Q114.05-8.51 114.05-7.17L114.05-7.17L114.05-7.17Q114.05-4.10 116.74-3.46L116.74-3.46L116.74-3.46Q116.10-1.28 113.79 0L113.79 0L113.79 0Q111.49 1.28 108.22 1.28L108.22 1.28L108.22 1.28Q104.96 1.28 103.10-0.77L103.10-0.77L103.10-0.77Q101.25-2.82 101.25-6.40ZM125.86-1.92L125.86-1.92L125.86-1.92Q124.35-3.58 123.68-6.21L123.68-6.21L123.68-6.21Q123.01-8.83 123.01-13.12L123.01-13.12L123.01-13.12Q123.01-17.41 124.48-21.31L124.48-21.31L124.48-21.31Q125.95-25.22 128.64-28.03L128.64-28.03L128.64-28.03Q134.14-33.92 143.23-33.92L143.23-33.92L143.23-33.92Q146.50-33.92 148.86-32.83L148.86-32.83L159.81-33.92L155.07-8.96L155.07-8.96Q154.88-8.19 154.88-6.78L154.88-6.78L154.88-6.78Q154.88-5.38 155.74-4.48L155.74-4.48L155.74-4.48Q156.61-3.58 157.89-3.46L157.89-3.46L157.89-3.46Q157.25-1.28 154.91 0L154.91 0L154.91 0Q152.58 1.28 149.95 1.28L149.95 1.28L149.95 1.28Q147.33 1.28 145.57 0.29L145.57 0.29L145.57 0.29Q143.81-0.70 143.30-2.37L143.30-2.37L143.30-2.37Q142.27-0.77 140.10 0.26L140.10 0.26L140.10 0.26Q137.92 1.28 135.01 1.28L135.01 1.28L135.01 1.28Q132.10 1.28 129.73 0.51L129.73 0.51L129.73 0.51Q127.36-0.26 125.86-1.92ZM139.36-27.90L139.36-27.90L139.36-27.90Q138.62-26.75 137.98-24.80L137.98-24.80L137.98-24.80Q137.34-22.85 136.29-17.63L136.29-17.63L136.29-17.63Q135.23-12.42 135.23-8.70L135.23-8.70L135.23-8.70Q135.23-4.99 135.81-3.90L135.81-3.90L135.81-3.90Q136.38-2.82 137.41-2.82L137.41-2.82L137.41-2.82Q139.46-2.82 140.96-4.77L140.96-4.77L140.96-4.77Q142.46-6.72 143.04-10.18L143.04-10.18L146.43-28.93L146.43-28.93Q145.09-30.08 143.52-30.08L143.52-30.08L143.52-30.08Q141.95-30.08 141.02-29.57L141.02-29.57L141.02-29.57Q140.10-29.06 139.36-27.90ZM190.34 1.28L190.34 1.28L190.34 1.28Q182.59 1.28 182.59-4.74L182.59-4.74L182.59-4.74Q182.66-6.40 183.17-9.22L183.17-9.22L184.32-15.10L184.32-15.10Q186.05-23.42 186.05-25.28L186.05-25.28L186.05-25.28Q186.05-28.99 183.87-28.99L183.87-28.99L183.87-28.99Q180.22-28.99 178.30-19.46L178.30-19.46L174.53 0L161.66 1.28L168.32-32.70L178.82-33.92L177.79-27.65L177.79-27.65Q180.80-33.92 190.02-33.92L190.02-33.92L190.02-33.92Q194.50-33.92 196.38-32.03L196.38-32.03L196.38-32.03Q198.27-30.14 198.27-25.92L198.27-25.92L198.27-25.92Q198.27-21.95 196.22-12.67L196.22-12.67L196.22-12.67Q195.26-8.51 195.26-6.94L195.26-6.94L195.26-6.94Q195.26-5.38 196.13-4.48L196.13-4.48L196.13-4.48Q196.99-3.58 198.27-3.46L198.27-3.46L198.27-3.46Q197.63-1.28 195.42 0L195.42 0L195.42 0Q193.22 1.28 190.34 1.28ZM217.34 1.28L217.34 1.28L217.34 1.28Q203.26 1.28 203.26-11.97L203.26-11.97L203.26-11.97Q203.26-21.38 208.45-27.46L208.45-27.46L208.45-27.46Q213.95-33.92 223.49-33.92L223.49-33.92L223.49-33.92Q230.40-33.92 233.92-30.72L233.92-30.72L233.92-30.72Q237.44-27.52 237.44-20.80L237.44-20.80L237.44-20.80Q237.44-10.56 231.94-4.61L231.94-4.61L231.94-4.61Q226.56 1.28 217.34 1.28ZM219.01-26.56L219.01-26.56L219.01-26.56Q218.24-24.83 217.63-22.24L217.63-22.24L217.63-22.24Q217.02-19.65 216.26-15.55L216.26-15.55L216.26-15.55Q215.49-11.46 215.49-6.40L215.49-6.40L215.49-6.40Q215.49-4.74 216.03-3.65L216.03-3.65L216.03-3.65Q216.58-2.56 218.05-2.56L218.05-2.56L218.05-2.56Q219.52-2.56 220.45-3.26L220.45-3.26L220.45-3.26Q221.38-3.97 222.08-5.63L222.08-5.63L222.08-5.63Q223.36-8.58 224.38-14.05L224.38-14.05L224.38-14.05Q225.41-19.52 225.50-21.89L225.50-21.89L225.50-21.89Q225.60-24.26 225.60-26.02L225.60-26.02L225.60-26.02Q225.60-27.78 225.09-28.93L225.09-28.93L225.09-28.93Q224.58-30.08 223.14-30.08L223.14-30.08L223.14-30.08Q221.70-30.08 220.74-29.18L220.74-29.18L220.74-29.18Q219.78-28.29 219.01-26.56ZM264.45-31.55L264.45-31.55L264.45-31.55Q266.56-33.92 270.21-33.92L270.21-33.92L270.21-33.92Q272.45-33.92 274.18-32.70L274.18-32.70L274.18-32.70Q275.90-31.49 275.90-29.22L275.90-29.22L275.90-29.22Q275.90-26.94 275.20-24.51L275.20-24.51L275.20-24.51Q274.50-22.08 273.41-19.58L273.41-19.58L273.41-19.58Q271.23-14.72 268.22-10.69L268.22-10.69L268.22-10.69Q264.00-4.86 259.94-1.79L259.94-1.79L259.94-1.79Q255.87 1.28 251.46 1.28L251.46 1.28L251.46 1.28Q247.87 1.28 245.70 0.45L245.70 0.45L245.70 0.45Q245.31-12.99 244.83-17.79L244.83-17.79L244.83-17.79Q244.35-22.59 243.97-25.22L243.97-25.22L243.97-25.22Q243.33-30.34 241.41-31.55L241.41-31.55L241.41-31.55Q242.88-32.83 244.32-33.38L244.32-33.38L244.32-33.38Q245.76-33.92 248.74-33.92L248.74-33.92L248.74-33.92Q251.71-33.92 253.82-31.58L253.82-31.58L253.82-31.58Q255.94-29.25 256.35-25.12L256.35-25.12L256.35-25.12Q256.77-20.99 256.77-16L256.77-16L256.77-16Q256.77-11.01 256.38-4.99L256.38-4.99L256.38-4.99Q258.37-6.40 260.48-10.69L260.48-10.69L260.48-10.69Q263.36-16.64 264.38-23.81L264.38-23.81L264.38-23.81Q264.70-25.98 264.70-28.29L264.70-28.29L264.70-28.29Q264.70-30.59 264.45-31.55Z" fill="url(#editing-outline-gradient)"></path></g></g><style>text {
  font-size: 64px;
  font-family: Arial Black;
  dominant-baseline: central;
  text-anchor: middle;
}</style></svg>